<svg width="500" height="500" viewBox="0 0 500 500" fill="none" xmlns="http://www.w3.org/2000/svg">
  <mask id="mask0_314_22" style="mask-type:alpha" maskUnits="userSpaceOnUse" x="0" y="0" width="500" height="500">
    <circle cx="250" cy="250" r="250" fill="#D9D9D9" />
  </mask>
  <g mask="url(#mask0_314_22)">
    <path fill-rule="evenodd" clip-rule="evenodd"
      d="M224.058 90.75C210.067 107.662 189.935 131.924 179.32 144.665L160.021 167.831L156.064 179.165C153.888 185.399 150.282 196.35 148.051 203.5L143.995 216.5L137.978 220.5C131.037 225.115 127.935 228.634 115.065 246.5C101.349 265.541 99.697 267.365 88.105 276.269C59.664 298.117 45.06 311.81 42.529 319C38.084 331.632 15.663 432.419 -0.405 512C-2.903 524.375 -5.184 535.512 -5.474 536.75L-6 539H250.08H506.161L505.604 534.75C505.298 532.412 504.351 523.975 503.501 516C502.65 508.025 499.994 485.3 497.597 465.5C495.2 445.7 492.718 424.55 492.081 418.5C489.967 398.43 484.68 379.023 478.78 369.676C472.668 359.994 458.798 348.64 443.536 340.824L435.41 336.664L421.534 297.082C413.902 275.312 403.996 247.205 399.52 234.622L391.384 211.743L376.461 198.727C327.742 156.23 335.744 164.711 282.607 99.25C265.084 77.663 250.465 60 250.122 60C249.778 60 238.05 73.837 224.058 90.75Z"
      fill="white" />
    <path
      d="M505.999 538.924C505.129 532.436 489.733 424.668 421.412 382L298.5 176L250 60.23C263 74.4999 264.962 77.893 282.485 99.48C335.622 164.941 327.62 156.46 376.339 198.957L391.262 211.973L399.398 234.852C403.874 247.435 413.78 275.542 421.412 297.312L435.288 336.894L443.414 341.054C458.676 348.87 472.546 360.224 478.658 369.906C484.558 379.253 489.845 398.66 491.959 418.73C492.596 424.78 495.078 445.93 497.475 465.73C499.872 485.53 502.528 508.255 503.379 516.23C504.229 524.205 505.176 532.642 505.482 534.98L505.999 538.924Z"
      fill="#A8B6C0" />
    <path fill-rule="evenodd" clip-rule="evenodd"
      d="M187.086 148.256L173.633 151.432L166.886 159.427C159.579 168.086 157.769 172.315 148.055 203.422L143.995 216.422L137.978 220.422C131.037 225.037 127.935 228.556 115.065 246.422C101.349 265.463 99.697 267.287 88.105 276.191C59.664 298.039 45.06 311.732 42.529 318.922C38.084 331.554 15.663 432.341 -0.405 511.922C-2.903 524.297 -5.184 535.434 -5.474 536.672L-6 538.922H250.053H506.107L505.544 534.172C505.234 531.559 503.855 519.297 502.479 506.922C501.103 494.547 498.613 473.847 496.946 460.922L493.913 437.422L485.355 420.922C477.139 405.083 476.364 403.981 466.023 393.422L455.249 382.422L445.191 359.422C439.659 346.772 431.244 325.172 426.491 311.422C417.954 286.728 417.707 286.189 406.329 267.422C396.136 250.61 393.4 246.925 382.565 235.422L370.321 222.422L363.874 202.229L357.427 182.035L343.982 170.067C336.588 163.485 328.874 156.09 326.841 153.633C323.24 149.284 322.928 149.137 314.841 147.992C310.274 147.345 305.831 146.61 304.966 146.358C304.031 146.086 299.095 149.376 292.771 154.489L282.147 163.077L262.843 160.627L243.538 158.177L232.038 162.974C225.713 165.612 218.843 168.489 216.771 169.367C213.088 170.927 212.986 170.912 212.192 168.693C211.745 167.444 209.679 161.584 207.6 155.672C204.821 147.767 203.386 144.943 202.179 145.001C201.277 145.044 194.484 146.509 187.086 148.256ZM296.297 196.667C299.304 201.482 309.274 217.278 318.453 231.768C327.631 246.259 335.005 258.452 334.839 258.863C334.674 259.275 329.214 257.641 322.706 255.232L310.874 250.853L300.285 256.929C294.461 260.27 289.21 262.817 288.617 262.588C288.023 262.359 283.848 259.19 279.337 255.547C274.827 251.903 270.48 248.922 269.678 248.922C268.877 248.922 261.995 251.587 254.385 254.845C246.776 258.102 240.36 260.577 240.127 260.345C239.345 259.562 289.241 186.986 290.184 187.535C290.539 187.742 293.29 191.851 296.297 196.667ZM242.407 232.172C241.187 234.209 209.902 276.332 208.8 277.422C208.118 278.096 208.006 275.376 208.456 269.084C209.568 253.525 208.445 255.24 225.917 242.418C240.954 231.384 244.021 229.478 242.407 232.172ZM141.854 256.955C146.539 269.069 151.731 284.767 152.619 289.5C153.115 292.145 152.439 294.11 148.977 300.085C144.353 308.064 111.894 355.361 94.529 379.422C88.575 387.672 77.582 402.972 70.099 413.422C52.17 438.463 45.774 446.992 45.29 446.507C44.679 445.896 48.471 438.851 101.311 342.422C120.114 308.109 117.479 315.03 129.672 267.922C132.732 256.097 135.467 246.045 135.75 245.585C136.623 244.162 137.638 246.053 141.854 256.955ZM356.374 311.114C361.134 318.645 365.474 325.845 366.02 327.114C367.771 331.191 376.156 362.067 375.801 363.132C375.613 363.697 370.35 359.988 364.106 354.889C355.177 347.597 352.411 345.825 351.146 346.589C342.353 351.894 330.898 358.116 330.555 357.772C330.319 357.536 333.257 344.311 337.085 328.382C340.913 312.454 344.294 298.339 344.599 297.016C345.339 293.811 345.743 294.295 356.374 311.114ZM303.019 362.193C300.724 370.019 297.451 380.922 295.747 386.422L292.648 396.422L291.898 390.422C291.485 387.122 290.633 379.52 290.006 373.528L288.866 362.635L297.702 353.747C303.639 347.775 306.645 345.368 306.865 346.412C307.045 347.265 305.315 354.367 303.019 362.193ZM168.601 399.289C165.7 408.423 162.591 414.942 153.431 431.099C142.732 449.972 138.988 455.784 139.072 453.386C139.09 452.856 140.165 445.311 141.459 436.62L143.813 420.818L149.879 415.328C153.376 412.163 159.217 404.988 163.668 398.389C167.915 392.092 171.583 387.134 171.82 387.371C172.057 387.608 170.609 392.971 168.601 399.289Z"
      fill="#4B545D" />
  </g>
</svg>
